<svg width="56" height="19" viewBox="0 0 56 19" fill="none" xmlns="http://www.w3.org/2000/svg">
<g clip-path="url(#clip0_323_37)">
<path d="M6.89673 0.00320435H7.39401C9.12329 0.0412844 10.8234 0.735685 12.0442 1.96769C11.594 2.42913 11.1326 2.87041 10.6913 3.32961C10.0058 2.70913 9.17929 2.22977 8.27657 2.06177C6.94153 1.77953 5.50569 2.03265 4.38569 2.79425C3.16489 3.59393 2.33833 4.94689 2.15913 6.39393C1.96201 7.82305 2.36521 9.3261 3.29705 10.4349C4.18857 11.5146 5.55273 12.1911 6.96169 12.2381C8.27657 12.3143 9.64969 11.9088 10.6084 10.9882C11.361 10.3408 11.7082 9.35298 11.8202 8.39426C10.2612 8.39426 8.69993 8.40322 7.14089 8.39426V6.45889H13.7086C14.0468 8.53538 13.5585 10.8739 11.9793 12.3591C10.9265 13.4119 9.47049 14.0323 7.98537 14.1533C6.54729 14.2944 5.06217 14.0211 3.78537 13.3267C2.25321 12.5091 1.03241 11.1271 0.432087 9.50306C-0.132393 8.00898 -0.141353 6.31777 0.385047 4.81249C0.864407 3.44161 1.78505 2.22977 2.97001 1.38305C4.10569 0.547525 5.48777 0.0860845 6.89673 0.00320435Z" fill="#3780FF"/>
<path d="M44.5738 0.49057H46.5853V13.9082C45.9178 13.9082 45.2413 13.9171 44.5738 13.8992C44.585 9.4349 44.5738 4.96162 44.5738 0.49057Z" fill="#38B137"/>
<path d="M18.1821 5.14082C19.4208 4.90562 20.7648 5.16994 21.7884 5.91138C22.718 6.56993 23.3676 7.60257 23.5647 8.72929C23.8179 10.0352 23.4998 11.4643 22.6531 12.497C21.7414 13.6528 20.2473 14.2733 18.7914 14.1792C17.4563 14.103 16.1616 13.4378 15.3709 12.3469C14.4794 11.144 14.2621 9.49089 14.7504 8.08193C15.241 6.56993 16.6208 5.4141 18.1821 5.14082ZM18.4621 6.92609C17.9536 7.05825 17.4855 7.34945 17.1472 7.76161C16.2355 8.85249 16.2915 10.6266 17.2973 11.6413C17.8707 12.2237 18.7354 12.497 19.5328 12.3357C20.2742 12.2035 20.9238 11.7062 21.28 11.0477C21.9004 9.92993 21.7212 8.38881 20.7715 7.51521C20.1645 6.95521 19.2707 6.72001 18.4621 6.92609Z" fill="#FA3913"/>
<path d="M28.1411 5.1408C29.559 4.86752 31.1113 5.264 32.1708 6.25856C33.9001 7.80864 34.0883 10.7117 32.6121 12.497C31.7206 13.6237 30.2736 14.2442 28.8445 14.1792C27.4825 14.1411 26.1386 13.4646 25.3299 12.3469C24.4182 11.1171 24.2211 9.42368 24.7386 7.98784C25.256 6.52288 26.609 5.40512 28.1411 5.1408ZM28.4233 6.92608C27.9149 7.05824 27.4467 7.34944 27.1085 7.75264C26.2058 8.82336 26.2438 10.5706 27.2115 11.5965C27.7849 12.208 28.6765 12.5082 29.503 12.3379C30.2355 12.1968 30.8941 11.7085 31.2502 11.0499C31.8617 9.9232 31.6825 8.38208 30.7238 7.50848C30.1145 6.94624 29.2208 6.72 28.4233 6.92608Z" fill="#FCBD06"/>
<path d="M36.5882 5.68512C37.6679 5.00864 39.1059 4.82048 40.2707 5.40288C40.6381 5.56192 40.9383 5.8352 41.2295 6.10848C41.2384 5.85536 41.2295 5.59104 41.2384 5.32896C41.8679 5.33792 42.4973 5.32896 43.1357 5.33792V13.6259C43.1268 14.8758 42.8064 16.1997 41.906 17.1113C40.9204 18.1171 39.4061 18.4262 38.0442 18.2201C36.5882 18.0051 35.3203 16.9433 34.7558 15.5993C35.3203 15.3261 35.9117 15.111 36.4941 14.8579C36.8234 15.6285 37.4909 16.287 38.3264 16.4371C39.1619 16.5872 40.1296 16.3811 40.6762 15.6845C41.2586 14.9699 41.2586 13.9933 41.2295 13.1197C40.7971 13.543 40.2999 13.9193 39.6973 14.0582C38.3914 14.4256 36.9533 13.9731 35.9475 13.0905C34.9328 12.208 34.3325 10.8438 34.3885 9.49087C34.4176 7.96095 35.2822 6.4848 36.5882 5.68512ZM38.5325 6.888C37.9591 6.98208 37.4237 7.3024 37.0563 7.74368C36.1738 8.79647 36.1738 10.4787 37.0653 11.5113C37.5738 12.1229 38.3891 12.4611 39.1799 12.376C39.9213 12.2998 40.609 11.8317 40.9741 11.1821C41.5946 10.0822 41.4916 8.58815 40.6538 7.62944C40.1386 7.04032 39.312 6.74688 38.5325 6.888Z" fill="#3780FF"/>
<path d="M49 6.16448C50.1267 5.11168 51.865 4.75552 53.312 5.3088C54.6829 5.82624 55.5587 7.13216 56 8.47616C53.9616 9.32288 51.9322 10.1584 49.8915 11.0029C50.1738 11.5382 50.6061 12.0266 51.1885 12.2237C52.0061 12.5149 52.9827 12.4118 53.6681 11.8675C53.9414 11.6614 54.1565 11.3882 54.3625 11.1261C54.88 11.4733 55.3952 11.8115 55.9126 12.1587C55.1801 13.2586 53.9481 14.0291 52.6243 14.1501C51.1594 14.3293 49.5981 13.7648 48.6506 12.6179C47.0915 10.817 47.2438 7.79072 49 6.16448ZM50.0058 7.90272C49.6854 8.36416 49.5555 8.9264 49.5645 9.48192C50.9264 8.91744 52.2883 8.3552 53.6525 7.78176C53.4262 7.25536 52.8819 6.93504 52.3286 6.85216C51.4326 6.69088 50.503 7.17024 50.0058 7.90272Z" fill="#FA3913"/>
</g>
<defs>
<clipPath id="clip0_323_37">
<rect width="56" height="18.2784" fill="white"/>
</clipPath>
</defs>
</svg>
