<svg width="56" height="17" viewBox="0 0 56 17" fill="none" xmlns="http://www.w3.org/2000/svg">
<g clip-path="url(#clip0_323_46)">
<path d="M0.00656128 3.03256H1.95912V7.37059H6.0772V3.03256H8.03228V13.6811H6.0772V9.25195H1.95912V13.6811H0.00656128V3.03256ZM14.218 10.2127C14.218 11.1041 13.4917 11.8295 12.6005 11.8295C11.709 11.8295 10.9832 11.1041 10.9832 10.2127V5.62814H9.1315V10.2127C9.1315 12.1253 10.6878 13.6811 12.6005 13.6811C14.5129 13.6811 16.069 12.1253 16.069 10.2127V5.62814H14.218V10.2127ZM21.2383 5.68184C20.3198 5.68184 19.6786 5.94839 19.0595 6.55619V3.03256H17.2017V9.5628C17.2017 12.0071 18.969 13.6811 20.9545 13.6811C23.1618 13.6811 25.0958 11.9773 25.0958 9.68158C25.0958 7.415 23.3124 5.68184 21.2383 5.68184ZM21.2845 11.9625C20.0257 11.9625 19.0631 10.9112 19.0631 9.68158C19.0631 8.45177 20.0257 7.40013 21.2845 7.40013C22.3511 7.40013 23.3143 8.45177 23.3143 9.68158C23.3143 10.9112 22.3511 11.9625 21.2845 11.9625ZM28.2159 6.14986C28.2159 5.21602 28.8381 4.91994 29.5193 4.91994C30.0677 4.91994 30.7934 5.33469 31.267 5.83847L32.4814 4.41648C31.8745 3.60186 30.6452 3.0388 29.6379 3.0388C27.6231 3.0388 26.1714 4.20911 26.1714 6.14986C26.1714 9.74939 30.6007 8.60839 30.6007 10.6235C30.6007 11.245 29.9936 11.7936 29.2977 11.7936C28.2011 11.7936 27.8455 11.2603 27.342 10.6972L25.9937 12.0895C26.8534 13.1413 27.9196 13.6749 29.1937 13.6749C31.1045 13.6749 32.6452 12.4898 32.6452 10.6378C32.6452 6.63844 28.2159 7.88291 28.2159 6.14986ZM37.5358 5.5775C35.5505 5.5775 33.783 7.2505 33.783 9.69536V16.2424H35.6406V12.7021C36.2599 13.3094 36.9007 13.5764 37.8196 13.5764C39.8935 13.5764 41.6771 11.8435 41.6771 9.57691C41.6771 7.28091 39.7426 5.5775 37.5358 5.5775ZM37.8658 11.8584C36.6072 11.8584 35.6444 10.8056 35.6444 9.57691C35.6444 8.34709 36.6072 7.29545 37.8658 7.29545C38.9323 7.29545 39.8955 8.34709 39.8955 9.57691C39.8955 10.8056 38.9323 11.8584 37.8658 11.8584ZM55.3513 11.9625C54.2556 11.9625 53.9445 11.4887 53.9445 10.7625V7.54822H55.6477V5.91897H53.9445V3.77084L52.0638 4.615V11.1625C52.0638 12.8366 53.2188 13.6811 54.8031 13.6811C55.0401 13.6811 55.3664 13.6658 55.5443 13.6219L56.0036 11.9334C55.7962 11.9477 55.5593 11.9625 55.3513 11.9625Z" fill="#45535E"/>
<path d="M50.4523 7.64292C50.0962 7.0302 49.5952 6.539 48.969 6.1692C48.5009 5.89675 48.0156 5.72382 47.4688 5.64956V3.70268C48.0156 3.47048 48.355 2.95653 48.355 2.35693C48.355 1.53968 47.6997 0.877418 46.8831 0.877418C46.0658 0.877418 45.399 1.53968 45.399 2.35693C45.399 2.95653 45.7188 3.47048 46.2656 3.70268V5.65043C45.8281 5.71365 45.3745 5.85004 44.9601 6.0596C44.1139 5.41692 41.3391 3.3085 39.7158 2.07704C39.7543 1.93825 39.784 1.79518 39.784 1.64425C39.784 0.739058 39.0509 0.00537109 38.1454 0.00537109C37.2399 0.00537109 36.5072 0.739058 36.5072 1.64425C36.5072 2.54932 37.2407 3.28323 38.1462 3.28323C38.4551 3.28323 38.7407 3.19289 38.9873 3.04436L39.3298 3.30423L44.0369 6.69573C43.7881 6.92421 43.5563 7.18409 43.3709 7.47568C42.9952 8.07014 42.7656 8.7242 42.7656 9.43765V9.58651C42.7656 10.0873 42.8608 10.5602 43.0229 11.0043C43.1656 11.3922 43.3743 11.7448 43.6328 12.0636L42.0706 13.6297C41.8442 13.5454 41.5983 13.5281 41.3623 13.5799C41.1263 13.6316 40.9103 13.7502 40.7399 13.9215C40.622 14.0389 40.5285 14.1785 40.4649 14.3322C40.4012 14.486 40.3688 14.6509 40.3693 14.8173C40.3695 15.1556 40.5012 15.4735 40.7406 15.7127C40.8579 15.8308 40.9974 15.9243 41.1511 15.9881C41.3049 16.0518 41.4697 16.0844 41.6361 16.0839C41.8026 16.0844 41.9675 16.0518 42.1213 15.988C42.275 15.9243 42.4146 15.8307 42.532 15.7127C42.6499 15.5953 42.7434 15.4558 42.807 15.3021C42.8706 15.1484 42.9032 14.9836 42.9028 14.8173C42.9028 14.6863 42.8826 14.5586 42.8445 14.4372L44.4592 12.8223C44.6806 12.9752 44.9197 13.1039 45.1767 13.2149C45.6837 13.4341 46.2432 13.5677 46.8556 13.5677H46.9678C47.6449 13.5677 48.2835 13.4086 48.8839 13.0833C49.5165 12.7396 50.0116 12.2695 50.3857 11.6693C50.7617 11.0676 50.9688 10.4027 50.9688 9.67117V9.63464C50.9688 8.91506 50.8022 8.25115 50.4523 7.64292ZM48.4794 11.0306C48.0411 11.5176 47.5373 11.8177 46.9678 11.8177H46.874C46.5487 11.8177 46.2305 11.7277 45.919 11.5642C45.5679 11.3842 45.3011 11.1274 45.0826 10.8022C44.8569 10.4831 44.7344 10.1346 44.7344 9.76512V9.6529C44.7344 9.28967 44.8041 8.94524 44.9797 8.61996C45.1675 8.26439 45.4212 7.98789 45.7585 7.76804C46.0897 7.54973 46.4434 7.44265 46.8373 7.44265H46.874C47.2312 7.44265 47.5694 7.51309 47.8886 7.67639C48.2137 7.85051 48.4794 8.0884 48.6853 8.40132C48.8854 8.71435 49.0044 9.052 49.0427 9.41982C49.0487 9.49628 49.0518 9.57459 49.0518 9.6494C49.0518 10.1486 48.861 10.6109 48.4794 11.0306Z" fill="#F8761F"/>
</g>
<defs>
<clipPath id="clip0_323_46">
<rect width="56" height="16.3072" fill="white"/>
</clipPath>
</defs>
</svg>
